<?xml version="1.0" encoding="UTF-8"?>
<svg width="1920" height="1280" viewBox="0 0 1920 1280" xmlns="http://www.w3.org/2000/svg" role="img" aria-label="Placeholder for Beach's feet image">
  <defs>
    <linearGradient id="bg2" x1="0" y1="0" x2="1" y2="1">
      <stop stop-color="#0891b2"/>
      <stop offset="1" stop-color="#06b6d4"/>
    </linearGradient>
    <filter id="grain2">
      <feTurbulence type="fractalNoise" baseFrequency="0.8" numOctaves="1" stitchTiles="stitch"/>
      <feColorMatrix type="saturate" values="0"/>
      <feBlend mode="multiply" in2="SourceGraphic"/>
    </filter>
  </defs>
  <rect width="1920" height="1280" fill="url(#bg2)"/>
  <g opacity="0.4" filter="url(#grain2)">
    <rect width="1920" height="1280" fill="#000"/>
  </g>
  <g transform="translate(960,640)" text-anchor="middle">
    <g transform="translate(-64,-64)">
      <path d="M80 136c20-52 80-44 104-58 16-10 14-34 22-40 16-16 58-12 68 14 10 26-18 60-38 80-34 32-70 48-110 34-18-6-24-16-20-30z" fill="#ffffff" opacity="0.9"/>
      <circle cx="192" cy="4" r="12" fill="#ffffff" opacity="0.9"/>
      <circle cx="170" cy="-6" r="11" fill="#ffffff" opacity="0.9"/>
      <circle cx="148" cy="-8" r="10" fill="#ffffff" opacity="0.9"/>
      <circle cx="126" cy="-2" r="9" fill="#ffffff" opacity="0.9"/>
      <circle cx="104" cy="8" r="8" fill="#ffffff" opacity="0.9"/>
    </g>
    <text y="200" font-family="Inter, Arial, sans-serif" font-size="42" fill="#ffffff" opacity="0.95">Replace with Beach's feet</text>
    <text y="250" font-family="Inter, Arial, sans-serif" font-size="26" fill="#ffffff" opacity="0.85">Recommended: 1920×1280 (JPG/PNG)</text>
  </g>
</svg>
